Coordinates
version=1
nRows=10
nColumns=24
inDegrees=yes

Units are S.I. units (second, meters, Newtons, ...)
If the header above contains a line with 'inDegrees', this indicates whether rotational values are in degrees (yes) or radians (no).

endheader
time	pelvis_tilt	pelvis_list	pelvis_rotation	pelvis_tx	pelvis_ty	pelvis_tz	hip_flexion_r	hip_adduction_r	hip_rotation_r	knee_angle_r	ankle_angle_r	subtalar_angle_r	mtp_angle_r	hip_flexion_l	hip_adduction_l	hip_rotation_l	knee_angle_l	ankle_angle_l	subtalar_angle_l	mtp_angle_l	lumbar_extension	lumbar_bending	lumbar_rotation
1.0	4.561964492481199	1.0553221317650372	0.007633785081399946	0.5852312665766576	1.052710660129116	0.06580174984476661	-12.247305102067575	3.8773729524011653	-3.58674884334884	17.39700657028299	12.923766186757383	9.951171132214476e-07	9.118202193726665e-11	31.12979543794717	-4.5366142180934474	-7.799613862063095	-77.44713036995465	-0.18406934120741236	-4.569739091536076e-06	-9.697223280966856e-16	-17.5419164634848	0.8913106824382591	4.930272621206639
1.017	4.449817859404183	-1.2806117126702559	2.9701015718275494	0.5902006021745368	1.0262496947553181	0.036032112199015455	6.641274093888378	3.9136445801960136	-0.7894150987425488	-5.805880924549454	11.953527665311988	-1.8102544601066785e-06	5.125427615425196e-10	1.4113125085043166	-3.0646305951287154	2.1254226495904627	-38.145090942982094	4.223608165137181	4.201413978544972e-06	-1.760119128117336e-17	-15.626756750287718	4.5196665191139385	-3.75743110806087
1.033	5.444778469678526	-1.3410728198822726	0.023045026389477613	0.5920636472451523	1.0586153230895021	0.047265380385488526	-5.343288906615431	3.2602619663492103	-4.433529912437589	-24.42041725210367	10.862591957505142	-3.5104230539984947e-07	2.8462807998768965e-10	25.168048789732467	-4.430865839801281	-6.696892929297377	-53.39697918530991	-1.538676219140281	-4.892275039130702e-06	-7.62849851604722e-16	-16.896421460428986	1.7469555033139197	2.149109221518941
1.05	5.829936168953095	1.3583439179977777	-0.05755475627030371	0.597172504456284	1.044139303501315	0.037255581342323194	-0.369713332631993	-0.9021758038832761	-4.9619988878710055	-25.102760567866696	2.954282417531042	-3.2718410285413438e-06	-4.3830401284102776e-10	14.263354908538531	-1.1379644180380675	-5.388269491892838	-48.75001927764245	3.024369682158126	-4.951404301483953e-06	-4.2138439902213177e-16	-16.65275778627153	-1.2915426066001239	-0.3540089224728902
1.067	6.078088301882584	-0.46666965899778057	-1.4102433772441716	0.604961465839243	1.0505773372011173	0.031619044069787855	-0.08292482297702364	-1.9317998939276722	-7.362617333932751	-54.55277722164596	-2.9234412915685724	-3.827619101266801e-06	9.797788743844289e-10	19.348536647138552	-2.0894190152425502	-7.826010391439674	-45.87402962750999	-2.3659633676401786	-4.949661030225038e-06	-2.3942038463158316e-16	-15.795926944655692	-1.0180674825228566	0.7786086276264843
1.083	4.878069402326823	-1.2810672348299397	0.9580254076937185	0.5811625469897304	1.0509225430094222	0.029840933350056897	5.295226152445943	1.962134261259395	-7.660583673267918	-15.687686915056425	7.762469371251983	-1.995282325701818e-06	7.964024185347909e-10	11.822785552987513	-3.1884697436231964	-7.157410931564085	-35.14930496613463	0.7742383370096397	-5.697684654213164e-06	4.3013954343619853e-16	-16.592804804551744	1.7803013620116448	-0.7785262506690298
1.1	4.158325740818048	1.3198197809377485	4.933221368661423	0.5566154166555027	1.0406869253412552	-0.018345194649031657	38.315054205656445	-1.964391171276553	-14.295349010532778	12.431805974476445	6.951441300959244	-6.493950093131008e-06	-2.6298452396626743e-10	-28.479799088467466	4.170752984698712	-0.022266713008132655	1.6980315238144499	14.66065391668541	-1.7705395852655136e-06	7.05276083122441e-16	-16.531708820544363	0.6823485746777822	-10.853097601133939
1.117	3.8309692364894428	-2.9276732732063415	-1.9996274618776628	0.567465391024794	1.0169301914969362	0.06090602064392548	-23.771800097414093	8.001046530437756	3.945663541161201	30.600944047053897	18.566651159825504	3.1845655961544096e-06	4.276512228996936e-10	20.03992684063587	-6.556658484121693	-9.655617256500939	-5.552822573621999	-0.19442556793789434	-5.058069451197339e-06	-1.4792519763688425e-15	-17.49401621246908	3.4699840606652512	4.816995244162143
1.133	3.83525272580255	-2.259528510693212	-2.3518811489577063	0.5807555337960386	0.998599672127257	0.05902194154719398	-22.16438764239477	6.198912396278452	6.119855756952804	19.007708663004813	10.525411377644655	3.4902943323181803e-06	7.337133683254903e-10	14.25122011641448	-5.988809541432529	-6.956485452149548	-8.279318730904707	0.7853112200542187	-2.6599612955524406e-06	-3.621902013640651e-16	-16.15950680847329	2.749412125742671	3.803125794369094
1.15	4.386577956518447	-4.202486532514444	-4.5251627659583065	0.5789165319985837	1.0303390571333353	0.07244483177098293	-32.765647943029435	7.202980714774563	1.5529805810409534	0.37558363968569175	11.81128486075454	6.358740696260375e-07	-8.730758429560643e-10	37.145122301838896	-8.595669228060707	-14.69480685981948	-15.423384357051809	-6.241869730989835	-7.046159812828979e-06	1.0045035694231206e-15	-17.355748779675658	3.190821116497216	9.676986906716653
